%TF.GenerationSoftware,KiCad,Pcbnew,(5.1.10)-1*%
%TF.CreationDate,2021-05-16T00:39:39-03:00*%
%TF.ProjectId,low_cost_robotics,6c6f775f-636f-4737-945f-726f626f7469,rev?*%
%TF.SameCoordinates,Original*%
%TF.FileFunction,Soldermask,Top*%
%TF.FilePolarity,Negative*%
%FSLAX46Y46*%
G04 Gerber Fmt 4.6, Leading zero omitted, Abs format (unit mm)*
G04 Created by KiCad (PCBNEW (5.1.10)-1) date 2021-05-16 00:39:39*
%MOMM*%
%LPD*%
G01*
G04 APERTURE LIST*
%ADD10C,2.400000*%
%ADD11R,2.400000X2.400000*%
%ADD12R,1.600000X1.600000*%
%ADD13C,1.600000*%
%ADD14R,2.200000X2.200000*%
%ADD15O,2.200000X2.200000*%
%ADD16O,1.600000X1.600000*%
%ADD17R,2.000000X0.500000*%
%ADD18R,1.700000X2.000000*%
%ADD19C,1.000000*%
%ADD20R,1.700000X1.700000*%
%ADD21O,1.700000X1.700000*%
%ADD22R,2.000000X1.905000*%
%ADD23O,2.000000X1.905000*%
G04 APERTURE END LIST*
D10*
%TO.C,J7*%
X52520000Y-71800000D03*
D11*
X57600000Y-71800000D03*
%TD*%
D10*
%TO.C,J4*%
X57120000Y-33800000D03*
D11*
X62200000Y-33800000D03*
%TD*%
D12*
%TO.C,C1*%
X38800000Y-30600000D03*
D13*
X38800000Y-33100000D03*
%TD*%
%TO.C,C2*%
X38800000Y-39300000D03*
D12*
X38800000Y-41800000D03*
%TD*%
D14*
%TO.C,D1*%
X30600000Y-44200000D03*
D15*
X30600000Y-51820000D03*
%TD*%
D16*
%TO.C,D2*%
X31980000Y-55800000D03*
D12*
X39600000Y-55800000D03*
%TD*%
%TO.C,D3*%
X38600000Y-71400000D03*
D16*
X30980000Y-71400000D03*
%TD*%
D11*
%TO.C,J1*%
X26600000Y-37800000D03*
D10*
X26600000Y-32720000D03*
%TD*%
D17*
%TO.C,J2*%
X26900000Y-60000000D03*
X26900000Y-60800000D03*
X26900000Y-61600000D03*
X26900000Y-62400000D03*
X26900000Y-63200000D03*
D18*
X26800000Y-57150000D03*
X21350000Y-57150000D03*
X26800000Y-66050000D03*
X21350000Y-66050000D03*
D19*
X24200000Y-59400000D03*
X24200000Y-63800000D03*
%TD*%
D20*
%TO.C,S2*%
X82600000Y-70400000D03*
D21*
X82600000Y-72940000D03*
X82600000Y-75480000D03*
%TD*%
D20*
%TO.C,A1*%
X76800000Y-31600000D03*
D21*
X76800000Y-34140000D03*
X76800000Y-36680000D03*
%TD*%
%TO.C,S1*%
X77800000Y-75480000D03*
X77800000Y-72940000D03*
D20*
X77800000Y-70400000D03*
%TD*%
D21*
%TO.C,A2*%
X82600000Y-36680000D03*
X82600000Y-34140000D03*
D20*
X82600000Y-31600000D03*
%TD*%
D16*
%TO.C,R1*%
X37580000Y-61600000D03*
D13*
X45200000Y-61600000D03*
%TD*%
%TO.C,R2*%
X45200000Y-66400000D03*
D16*
X37580000Y-66400000D03*
%TD*%
D12*
%TO.C,U1*%
X65600000Y-49400000D03*
D16*
X73220000Y-57020000D03*
X65600000Y-51940000D03*
X73220000Y-54480000D03*
X65600000Y-54480000D03*
X73220000Y-51940000D03*
X65600000Y-57020000D03*
X73220000Y-49400000D03*
%TD*%
D22*
%TO.C,U2*%
X47600000Y-30800000D03*
D23*
X47600000Y-33340000D03*
X47600000Y-35880000D03*
%TD*%
D16*
%TO.C,U3*%
X86620000Y-45200000D03*
X79000000Y-62980000D03*
X86620000Y-47740000D03*
X79000000Y-60440000D03*
X86620000Y-50280000D03*
X79000000Y-57900000D03*
X86620000Y-52820000D03*
X79000000Y-55360000D03*
X86620000Y-55360000D03*
X79000000Y-52820000D03*
X86620000Y-57900000D03*
X79000000Y-50280000D03*
X86620000Y-60440000D03*
X79000000Y-47740000D03*
X86620000Y-62980000D03*
D12*
X79000000Y-45200000D03*
%TD*%
%TO.C,U4*%
X50000000Y-45000000D03*
D16*
X57620000Y-62780000D03*
X50000000Y-47540000D03*
X57620000Y-60240000D03*
X50000000Y-50080000D03*
X57620000Y-57700000D03*
X50000000Y-52620000D03*
X57620000Y-55160000D03*
X50000000Y-55160000D03*
X57620000Y-52620000D03*
X50000000Y-57700000D03*
X57620000Y-50080000D03*
X50000000Y-60240000D03*
X57620000Y-47540000D03*
X50000000Y-62780000D03*
X57620000Y-45000000D03*
%TD*%
M02*
