%TF.GenerationSoftware,KiCad,Pcbnew,(5.1.10)-1*%
%TF.CreationDate,2021-05-16T00:39:39-03:00*%
%TF.ProjectId,low_cost_robotics,6c6f775f-636f-4737-945f-726f626f7469,rev?*%
%TF.SameCoordinates,Original*%
%TF.FileFunction,Copper,L2,Bot*%
%TF.FilePolarity,Positive*%
%FSLAX46Y46*%
G04 Gerber Fmt 4.6, Leading zero omitted, Abs format (unit mm)*
G04 Created by KiCad (PCBNEW (5.1.10)-1) date 2021-05-16 00:39:39*
%MOMM*%
%LPD*%
G01*
G04 APERTURE LIST*
%TA.AperFunction,ComponentPad*%
%ADD10C,2.400000*%
%TD*%
%TA.AperFunction,ComponentPad*%
%ADD11R,2.400000X2.400000*%
%TD*%
%TA.AperFunction,ComponentPad*%
%ADD12R,1.600000X1.600000*%
%TD*%
%TA.AperFunction,ComponentPad*%
%ADD13C,1.600000*%
%TD*%
%TA.AperFunction,ComponentPad*%
%ADD14R,2.200000X2.200000*%
%TD*%
%TA.AperFunction,ComponentPad*%
%ADD15O,2.200000X2.200000*%
%TD*%
%TA.AperFunction,ComponentPad*%
%ADD16O,1.600000X1.600000*%
%TD*%
%TA.AperFunction,ComponentPad*%
%ADD17R,1.700000X1.700000*%
%TD*%
%TA.AperFunction,ComponentPad*%
%ADD18O,1.700000X1.700000*%
%TD*%
%TA.AperFunction,ComponentPad*%
%ADD19R,2.000000X1.905000*%
%TD*%
%TA.AperFunction,ComponentPad*%
%ADD20O,2.000000X1.905000*%
%TD*%
%TA.AperFunction,Conductor*%
%ADD21C,2.000000*%
%TD*%
%TA.AperFunction,Conductor*%
%ADD22C,0.250000*%
%TD*%
G04 APERTURE END LIST*
D10*
%TO.P,J7,2*%
%TO.N,OUT3*%
X52520000Y-71800000D03*
D11*
%TO.P,J7,1*%
%TO.N,OUT4*%
X57600000Y-71800000D03*
%TD*%
D10*
%TO.P,J4,2*%
%TO.N,OUT1*%
X57120000Y-33800000D03*
D11*
%TO.P,J4,1*%
%TO.N,OUT2*%
X62200000Y-33800000D03*
%TD*%
D12*
%TO.P,C1,1*%
%TO.N,V_Bat*%
X38800000Y-30600000D03*
D13*
%TO.P,C1,2*%
%TO.N,GND*%
X38800000Y-33100000D03*
%TD*%
%TO.P,C2,2*%
%TO.N,GND*%
X38800000Y-39300000D03*
D12*
%TO.P,C2,1*%
%TO.N,5V*%
X38800000Y-41800000D03*
%TD*%
D14*
%TO.P,D1,1*%
%TO.N,5V*%
X30600000Y-44200000D03*
D15*
%TO.P,D1,2*%
%TO.N,Net-(D1-Pad2)*%
X30600000Y-51820000D03*
%TD*%
D16*
%TO.P,D2,2*%
%TO.N,GND*%
X31980000Y-55800000D03*
D12*
%TO.P,D2,1*%
%TO.N,Net-(D2-Pad1)*%
X39600000Y-55800000D03*
%TD*%
%TO.P,D3,1*%
%TO.N,Net-(D3-Pad1)*%
X38600000Y-71400000D03*
D16*
%TO.P,D3,2*%
%TO.N,GND*%
X30980000Y-71400000D03*
%TD*%
D11*
%TO.P,J1,1*%
%TO.N,GND*%
X26600000Y-37800000D03*
D10*
%TO.P,J1,2*%
%TO.N,V_Bat*%
X26600000Y-32720000D03*
%TD*%
D17*
%TO.P,S2,1*%
%TO.N,GND*%
X82600000Y-70400000D03*
D18*
%TO.P,S2,2*%
%TO.N,D-*%
X82600000Y-72940000D03*
%TO.P,S2,3*%
%TO.N,5V*%
X82600000Y-75480000D03*
%TD*%
D17*
%TO.P,A1,1*%
%TO.N,GND*%
X76800000Y-31600000D03*
D18*
%TO.P,A1,2*%
%TO.N,QE*%
X76800000Y-34140000D03*
%TO.P,A1,3*%
%TO.N,5V*%
X76800000Y-36680000D03*
%TD*%
%TO.P,S1,3*%
%TO.N,5V*%
X77800000Y-75480000D03*
%TO.P,S1,2*%
%TO.N,D+*%
X77800000Y-72940000D03*
D17*
%TO.P,S1,1*%
%TO.N,GND*%
X77800000Y-70400000D03*
%TD*%
D18*
%TO.P,A2,3*%
%TO.N,5V*%
X82600000Y-36680000D03*
%TO.P,A2,2*%
%TO.N,QF*%
X82600000Y-34140000D03*
D17*
%TO.P,A2,1*%
%TO.N,GND*%
X82600000Y-31600000D03*
%TD*%
D16*
%TO.P,R1,2*%
%TO.N,Net-(D2-Pad1)*%
X37580000Y-61600000D03*
D13*
%TO.P,R1,1*%
%TO.N,D+*%
X45200000Y-61600000D03*
%TD*%
%TO.P,R2,1*%
%TO.N,D-*%
X45200000Y-66400000D03*
D16*
%TO.P,R2,2*%
%TO.N,Net-(D3-Pad1)*%
X37580000Y-66400000D03*
%TD*%
D12*
%TO.P,U1,1*%
%TO.N,PB5*%
X65600000Y-49400000D03*
D16*
%TO.P,U1,5*%
%TO.N,PB0*%
X73220000Y-57020000D03*
%TO.P,U1,2*%
%TO.N,D-*%
X65600000Y-51940000D03*
%TO.P,U1,6*%
%TO.N,PB1*%
X73220000Y-54480000D03*
%TO.P,U1,3*%
%TO.N,D+*%
X65600000Y-54480000D03*
%TO.P,U1,7*%
%TO.N,PB2*%
X73220000Y-51940000D03*
%TO.P,U1,4*%
%TO.N,GND*%
X65600000Y-57020000D03*
%TO.P,U1,8*%
%TO.N,5V*%
X73220000Y-49400000D03*
%TD*%
D19*
%TO.P,U2,1*%
%TO.N,V_Bat*%
X47600000Y-30800000D03*
D20*
%TO.P,U2,2*%
%TO.N,GND*%
X47600000Y-33340000D03*
%TO.P,U2,3*%
%TO.N,5V*%
X47600000Y-35880000D03*
%TD*%
D16*
%TO.P,U3,16*%
%TO.N,5V*%
X86620000Y-45200000D03*
%TO.P,U3,8*%
%TO.N,GND*%
X79000000Y-62980000D03*
%TO.P,U3,15*%
%TO.N,QA*%
X86620000Y-47740000D03*
%TO.P,U3,7*%
%TO.N,QH*%
X79000000Y-60440000D03*
%TO.P,U3,14*%
%TO.N,PB2*%
X86620000Y-50280000D03*
%TO.P,U3,6*%
%TO.N,QG*%
X79000000Y-57900000D03*
%TO.P,U3,13*%
%TO.N,GND*%
X86620000Y-52820000D03*
%TO.P,U3,5*%
%TO.N,QF*%
X79000000Y-55360000D03*
%TO.P,U3,12*%
%TO.N,PB1*%
X86620000Y-55360000D03*
%TO.P,U3,4*%
%TO.N,QE*%
X79000000Y-52820000D03*
%TO.P,U3,11*%
%TO.N,PB0*%
X86620000Y-57900000D03*
%TO.P,U3,3*%
%TO.N,QD*%
X79000000Y-50280000D03*
%TO.P,U3,10*%
%TO.N,5V*%
X86620000Y-60440000D03*
%TO.P,U3,2*%
%TO.N,QC*%
X79000000Y-47740000D03*
%TO.P,U3,9*%
%TO.N,Net-(U3-Pad9)*%
X86620000Y-62980000D03*
D12*
%TO.P,U3,1*%
%TO.N,QB*%
X79000000Y-45200000D03*
%TD*%
%TO.P,U4,1*%
%TO.N,5V*%
X50000000Y-45000000D03*
D16*
%TO.P,U4,9*%
X57620000Y-62780000D03*
%TO.P,U4,2*%
%TO.N,QA*%
X50000000Y-47540000D03*
%TO.P,U4,10*%
%TO.N,QD*%
X57620000Y-60240000D03*
%TO.P,U4,3*%
%TO.N,OUT1*%
X50000000Y-50080000D03*
%TO.P,U4,11*%
%TO.N,OUT3*%
X57620000Y-57700000D03*
%TO.P,U4,4*%
%TO.N,GND*%
X50000000Y-52620000D03*
%TO.P,U4,12*%
X57620000Y-55160000D03*
%TO.P,U4,5*%
X50000000Y-55160000D03*
%TO.P,U4,13*%
X57620000Y-52620000D03*
%TO.P,U4,6*%
%TO.N,OUT2*%
X50000000Y-57700000D03*
%TO.P,U4,14*%
%TO.N,OUT4*%
X57620000Y-50080000D03*
%TO.P,U4,7*%
%TO.N,QB*%
X50000000Y-60240000D03*
%TO.P,U4,15*%
%TO.N,QC*%
X57620000Y-47540000D03*
%TO.P,U4,8*%
%TO.N,V_Bat*%
X50000000Y-62780000D03*
%TO.P,U4,16*%
%TO.N,5V*%
X57620000Y-45000000D03*
%TD*%
D21*
%TO.N,V_Bat*%
X47600000Y-30800000D02*
X45399700Y-30800000D01*
X50000000Y-62780000D02*
X47999700Y-62780000D01*
X47999700Y-62780000D02*
X47999700Y-61076300D01*
X47999700Y-61076300D02*
X45399700Y-58476300D01*
X45399700Y-58476300D02*
X45399700Y-30800000D01*
D22*
%TO.N,GND*%
X32050600Y-41600000D02*
X31925300Y-41600000D01*
X31925300Y-41600000D02*
X28125300Y-37800000D01*
X38800000Y-39300000D02*
X36500000Y-41600000D01*
X36500000Y-41600000D02*
X32050600Y-41600000D01*
X32050600Y-41600000D02*
X32050600Y-54604100D01*
X32050600Y-54604100D02*
X31980000Y-54674700D01*
X26600000Y-37800000D02*
X28125300Y-37800000D01*
X79000000Y-62980000D02*
X79000000Y-61854700D01*
X79000000Y-61854700D02*
X79281400Y-61854700D01*
X79281400Y-61854700D02*
X80125300Y-61010800D01*
X80125300Y-61010800D02*
X80125300Y-60158600D01*
X80125300Y-60158600D02*
X86338600Y-53945300D01*
X86338600Y-53945300D02*
X86620000Y-53945300D01*
X79000000Y-62980000D02*
X79000000Y-67975300D01*
X79000000Y-67975300D02*
X80200000Y-69175300D01*
X80200000Y-69175300D02*
X81424700Y-70400000D01*
X78975300Y-70400000D02*
X80200000Y-69175300D01*
X86620000Y-52820000D02*
X86620000Y-53945300D01*
X38800000Y-33100000D02*
X38800000Y-39300000D01*
X31980000Y-55800000D02*
X31980000Y-54674700D01*
X30980000Y-71400000D02*
X30980000Y-70274700D01*
X31980000Y-55800000D02*
X31980000Y-69274700D01*
X31980000Y-69274700D02*
X30980000Y-70274700D01*
X77800000Y-70400000D02*
X78975300Y-70400000D01*
X82600000Y-70400000D02*
X81424700Y-70400000D01*
X50000000Y-55160000D02*
X50000000Y-52620000D01*
X57620000Y-52620000D02*
X57620000Y-55160000D01*
D21*
%TO.N,5V*%
X86620000Y-45200000D02*
X86620000Y-43199700D01*
X82600000Y-36680000D02*
X82600000Y-38730300D01*
X82600000Y-38730300D02*
X82600100Y-38730300D01*
X82600100Y-38730300D02*
X82600100Y-39179800D01*
X82600100Y-39179800D02*
X86620000Y-43199700D01*
X82600000Y-75480000D02*
X84650300Y-75480000D01*
X84650300Y-75480000D02*
X88620300Y-71510000D01*
X88620300Y-71510000D02*
X88620300Y-60440000D01*
X86620000Y-45200000D02*
X88620300Y-45200000D01*
X88620300Y-45200000D02*
X88620300Y-60440000D01*
X86620000Y-60440000D02*
X88620300Y-60440000D01*
X73220000Y-45000000D02*
X73220000Y-42310300D01*
X73220000Y-42310300D02*
X76800000Y-38730300D01*
X73220000Y-49400000D02*
X73220000Y-45000000D01*
X73220000Y-45000000D02*
X59620300Y-45000000D01*
X57620000Y-45000000D02*
X59620300Y-45000000D01*
X76800000Y-36680000D02*
X76800000Y-38730300D01*
D22*
%TO.N,Net-(D2-Pad1)*%
X37580000Y-61600000D02*
X37580000Y-60474700D01*
X37580000Y-60474700D02*
X39600000Y-58454700D01*
X39600000Y-58454700D02*
X39600000Y-55800000D01*
%TO.N,Net-(D3-Pad1)*%
X37580000Y-66400000D02*
X37580000Y-67525300D01*
X37580000Y-67525300D02*
X38600000Y-68545300D01*
X38600000Y-68545300D02*
X38600000Y-71400000D01*
%TO.N,D-*%
X65600000Y-51940000D02*
X64474700Y-51940000D01*
X64474700Y-51940000D02*
X61289300Y-48754600D01*
X61289300Y-48754600D02*
X55070300Y-48754600D01*
X55070300Y-48754600D02*
X53969300Y-49855600D01*
X53969300Y-49855600D02*
X53969300Y-60693200D01*
X53969300Y-60693200D02*
X48262500Y-66400000D01*
X48262500Y-66400000D02*
X45200000Y-66400000D01*
D21*
%TO.N,OUT2*%
X52000300Y-57700000D02*
X52200300Y-57500000D01*
X52200300Y-57500000D02*
X52200300Y-46200000D01*
X52200300Y-46200000D02*
X62200000Y-36200300D01*
X62200000Y-33800000D02*
X62200000Y-36200300D01*
X50000000Y-57700000D02*
X52000300Y-57700000D01*
%TO.N,OUT1*%
X50000000Y-50080000D02*
X47999700Y-50080000D01*
X47999700Y-50080000D02*
X47999700Y-42920300D01*
X47999700Y-42920300D02*
X57120000Y-33800000D01*
D22*
%TO.N,QE*%
X79000000Y-51694700D02*
X79281300Y-51694700D01*
X79281300Y-51694700D02*
X80125400Y-50850600D01*
X80125400Y-50850600D02*
X80125400Y-38131100D01*
X80125400Y-38131100D02*
X77309600Y-35315300D01*
X77309600Y-35315300D02*
X76800000Y-35315300D01*
X76800000Y-34140000D02*
X76800000Y-35315300D01*
X79000000Y-52820000D02*
X79000000Y-51694700D01*
%TO.N,D+*%
X67640400Y-64626100D02*
X58941100Y-73325400D01*
X58941100Y-73325400D02*
X50482700Y-73325400D01*
X50482700Y-73325400D02*
X44063000Y-66905700D01*
X44063000Y-66905700D02*
X44063000Y-62737000D01*
X44063000Y-62737000D02*
X45200000Y-61600000D01*
X65600000Y-55605300D02*
X65881400Y-55605300D01*
X65881400Y-55605300D02*
X67640400Y-57364300D01*
X67640400Y-57364300D02*
X67640400Y-64626100D01*
X67640400Y-64626100D02*
X74779000Y-71764700D01*
X74779000Y-71764700D02*
X77800000Y-71764700D01*
X77800000Y-72940000D02*
X77800000Y-71764700D01*
X65600000Y-54480000D02*
X65600000Y-55605300D01*
D21*
%TO.N,OUT4*%
X57600000Y-71800000D02*
X57600000Y-69399700D01*
X57620000Y-50080000D02*
X55619700Y-50080000D01*
X55619700Y-50080000D02*
X55619700Y-67419400D01*
X55619700Y-67419400D02*
X57600000Y-69399700D01*
D22*
%TO.N,QF*%
X82600000Y-35315300D02*
X82090400Y-35315300D01*
X82090400Y-35315300D02*
X81274700Y-36131000D01*
X81274700Y-36131000D02*
X81274700Y-52241300D01*
X81274700Y-52241300D02*
X79281300Y-54234700D01*
X79281300Y-54234700D02*
X79000000Y-54234700D01*
X82600000Y-34140000D02*
X82600000Y-35315300D01*
X79000000Y-55360000D02*
X79000000Y-54234700D01*
%TO.N,QD*%
X79000000Y-50280000D02*
X77874700Y-50280000D01*
X57620000Y-60240000D02*
X58745300Y-60240000D01*
X58745300Y-60240000D02*
X58745300Y-59677400D01*
X58745300Y-59677400D02*
X65212700Y-53210000D01*
X65212700Y-53210000D02*
X74944700Y-53210000D01*
X74944700Y-53210000D02*
X77874700Y-50280000D01*
%TD*%
M02*
